<?xml version="1.0" encoding="utf-8"?>
<!-- Generator: Adobe Illustrator 19.0.0, SVG Export Plug-In . SVG Version: 6.00 Build 0)  -->
<svg version="1.1" id="Layer_1" xmlns="http://www.w3.org/2000/svg" xmlns:xlink="http://www.w3.org/1999/xlink" x="0px" y="0px"
	 viewBox="-266 375.6 62.3 91.3" style="enable-background:new -266 375.6 62.3 91.3;" xml:space="preserve">
<style type="text/css">
	.st0{fill:#809A00;}
</style>
<g id="XMLID_2_">
	<path id="XMLID_6_" class="st0" d="M-234.8,378.1L-234.8,378.1c-22.2,0-36,24-24.9,43.2l24.9,43.2l24.9-43.2
		C-198.8,402.1-212.6,378.1-234.8,378.1z M-234.8,421.3c-9.1,0-16.5-7.4-16.5-16.5s7.4-16.5,16.5-16.5c9.1,0,16.5,7.4,16.5,16.5
		S-225.7,421.3-234.8,421.3z"/>
	<g id="XMLID_3_">
		<path id="XMLID_5_" class="st0" d="M-234.8,375.6c-12.7,0-24,7.8-28.9,19.4c-4.1,9.7-2.5,20,2.6,28.9c8,13.9,16.1,27.9,24.1,41.8
			c0.9,1.6,3.4,1.6,4.3,0c8-13.8,16-27.6,23.9-41.5c5.2-9,6.8-18.8,3.1-28.7C-210.2,383.4-222,375.9-234.8,375.6
			c-3.2-0.1-3.2,4.9,0,5c13.5,0.3,24.7,10.2,26.2,23.7c0.9,8.1-2.8,14.7-6.7,21.3c-7.2,12.5-14.4,25-21.7,37.5c1.4,0,2.9,0,4.3,0
			c-7.2-12.5-14.4-25-21.7-37.5c-3.9-6.8-7.3-13.1-6.7-21.3c1-13.3,13.2-23.7,26.3-23.7C-231.6,380.6-231.6,375.6-234.8,375.6z"/>
		<path id="XMLID_4_" class="st0" d="M-234.8,418.8c-18.1-0.7-18.1-27.3,0-28c7.9-0.3,13.7,6.6,14,14
			C-220.5,412.7-227.4,418.5-234.8,418.8c-3.2,0.1-3.2,5.1,0,5c10.6-0.4,18.6-8.4,19-19c0.4-10.6-9-18.6-19-19
			c-10.6-0.4-18.6,9-19,19c-0.4,10.6,9,18.6,19,19C-231.6,423.9-231.6,418.9-234.8,418.8z"/>
	</g>
</g>
</svg>
