<?xml version="1.0" encoding="utf-8"?>
<!-- Generator: Adobe Illustrator 19.0.0, SVG Export Plug-In . SVG Version: 6.00 Build 0)  -->
<svg version="1.1" id="Layer_1" xmlns="http://www.w3.org/2000/svg" xmlns:xlink="http://www.w3.org/1999/xlink" x="0px" y="0px"
	 viewBox="0 0 62.3 91.3" style="enable-background:new 0 0 62.3 91.3;" xml:space="preserve">
<style type="text/css">
	.st0{fill:#FFFFFF;}
</style>
<g id="XMLID_2_">
	<path id="XMLID_6_" class="st0" d="M31.2,2.5L31.2,2.5c-22.2,0-36,24-24.9,43.2l24.9,43.2l24.9-43.2C67.2,26.5,53.4,2.5,31.2,2.5z
		 M31.2,45.7c-9.1,0-16.5-7.4-16.5-16.5s7.4-16.5,16.5-16.5s16.5,7.4,16.5,16.5S40.3,45.7,31.2,45.7z"/>
	<g id="XMLID_3_">
		<path id="XMLID_5_" class="st0" d="M31.2,0C18.5,0,7.2,7.8,2.3,19.4c-4.1,9.7-2.5,20,2.6,28.9C12.9,62.2,21,76.2,29,90.1
			c0.9,1.6,3.4,1.6,4.3,0c8-13.8,16-27.6,23.9-41.5c5.2-9,6.8-18.8,3.1-28.7C55.8,7.8,44,0.3,31.2,0c-3.2-0.1-3.2,4.9,0,5
			c13.5,0.3,24.7,10.2,26.2,23.7c0.9,8.1-2.8,14.7-6.7,21.3C43.5,62.5,36.3,75,29,87.5c1.4,0,2.9,0,4.3,0C26.1,75,18.9,62.5,11.6,50
			c-3.9-6.8-7.3-13.1-6.7-21.3C5.9,15.4,18.1,5,31.2,5C34.4,5,34.4,0,31.2,0z"/>
		<path id="XMLID_4_" class="st0" d="M31.2,43.2c-18.1-0.7-18.1-27.3,0-28c7.9-0.3,13.7,6.6,14,14C45.5,37.1,38.6,42.9,31.2,43.2
			c-3.2,0.1-3.2,5.1,0,5c10.6-0.4,18.6-8.4,19-19s-9-18.6-19-19c-10.6-0.4-18.6,9-19,19c-0.4,10.6,9,18.6,19,19
			C34.4,48.3,34.4,43.3,31.2,43.2z"/>
	</g>
</g>
</svg>
